<svg id="Layer_1" data-name="Layer 1" xmlns="http://www.w3.org/2000/svg" viewBox="0 0 790.84 161.86"><defs><style>.cls-1{fill:none;stroke:#000;}</style></defs><title>SafeSpace svg</title><path class="cls-1" d="M217.78,116.49q0,15.47-11.13,24.38t-31,8.91q-18.28,0-32.34-6.87v-22.5a133.26,133.26,0,0,0,19.57,7.27,57.9,57.9,0,0,0,14.65,2.11q8,0,12.23-3t4.26-9.06a10,10,0,0,0-1.87-6,21,21,0,0,0-5.51-5,142.05,142.05,0,0,0-14.8-7.73q-10.47-4.92-15.7-9.45a35.45,35.45,0,0,1-8.36-10.55,30.09,30.09,0,0,1-3.12-14.06q0-15.16,10.27-23.83t28.4-8.67a67.06,67.06,0,0,1,17,2.11,116.91,116.91,0,0,1,16.91,5.94l-7.81,18.83A114.4,114.4,0,0,0,194.3,54a48.7,48.7,0,0,0-11.76-1.48q-6.88,0-10.55,3.2a10.57,10.57,0,0,0-3.67,8.36,10.34,10.34,0,0,0,1.48,5.59,16.3,16.3,0,0,0,4.73,4.61q3.24,2.23,15.35,8,16,7.66,22,15.35T217.78,116.49Z" transform="translate(-142.82 -25.28)"/><path class="cls-1" d="M292.07,148.2l-4.61-11.87h-0.62q-6,7.58-12.38,10.51t-16.6,2.93q-12.58,0-19.8-7.19t-7.23-20.47q0-13.91,9.73-20.51t29.34-7.3L285,93.83V90q0-13.28-13.59-13.28Q261,76.72,246.84,83L238.95,67a71,71,0,0,1,33.44-7.89q17.58,0,27,7.66T308.71,90v58.2H292.07Zm-7-40.47-9.22.31q-10.39.31-15.47,3.75t-5.08,10.47q0,10.08,11.56,10.08,8.28,0,13.24-4.77t5-12.66v-7.19Z" transform="translate(-142.82 -25.28)"/><path class="cls-1" d="M381.53,78.75H360.9V148.2H337.07V78.75H323.95V67.27l13.13-6.41V54.45q0-14.92,7.34-21.8t23.52-6.88a61.22,61.22,0,0,1,22,3.67L383.79,47a44.44,44.44,0,0,0-13.28-2.27q-5.08,0-7.34,3a12.44,12.44,0,0,0-2.27,7.7v5.47h20.63V78.75Z" transform="translate(-142.82 -25.28)"/><path class="cls-1" d="M434.73,149.77q-21.09,0-33-11.64t-11.87-33q0-22,11-33.95t30.35-12q18.52,0,28.83,10.55t10.31,29.14v11.56H414q0.39,10.16,6,15.86t15.78,5.7a65.52,65.52,0,0,0,14.92-1.64,74.63,74.63,0,0,0,14.69-5.23V143.6a55.93,55.93,0,0,1-13.36,4.65A84.24,84.24,0,0,1,434.73,149.77Zm-3.36-73.59q-7.58,0-11.87,4.8t-4.92,13.63H448Q447.85,85.78,443.4,81T431.37,76.17Z" transform="translate(-142.82 -25.28)"/><path class="cls-1" d="M559,116.49q0,15.47-11.13,24.38t-31,8.91q-18.28,0-32.34-6.87v-22.5a133.26,133.26,0,0,0,19.57,7.27,57.9,57.9,0,0,0,14.65,2.11q8,0,12.23-3t4.26-9.06a10,10,0,0,0-1.87-6,21,21,0,0,0-5.51-5,142.05,142.05,0,0,0-14.8-7.73q-10.47-4.92-15.7-9.45A35.45,35.45,0,0,1,489,78.91a30.09,30.09,0,0,1-3.12-14.06q0-15.16,10.27-23.83t28.4-8.67a67.06,67.06,0,0,1,17,2.11,116.91,116.91,0,0,1,16.91,5.94l-7.81,18.83A114.4,114.4,0,0,0,535.55,54a48.7,48.7,0,0,0-11.76-1.48q-6.88,0-10.55,3.2a10.57,10.57,0,0,0-3.67,8.36,10.34,10.34,0,0,0,1.48,5.59,16.3,16.3,0,0,0,4.73,4.61q3.24,2.23,15.35,8,16,7.66,22,15.35T559,116.49Z" transform="translate(-142.82 -25.28)"/><path class="cls-1" d="M625.82,149.77q-15.39,0-24.14-11.17h-1.25q1.25,10.94,1.25,12.66v35.39H577.86V60.86h19.38l3.36,11.33h1.09q8.36-13,24.77-13,15.47,0,24.22,12t8.75,33.2q0,14-4.1,24.3t-11.68,15.7A29.93,29.93,0,0,1,625.82,149.77Zm-7-71.48q-8.83,0-12.89,5.43t-4.22,17.93v2.58q0,14.06,4.18,20.16t13.24,6.09q16,0,16-26.41,0-12.89-3.95-19.34T618.79,78.28Z" transform="translate(-142.82 -25.28)"/><path class="cls-1" d="M734.57,148.2L730,136.33h-0.62q-6,7.58-12.38,10.51t-16.6,2.93q-12.58,0-19.8-7.19t-7.23-20.47q0-13.91,9.73-20.51t29.34-7.3l15.16-.47V90q0-13.28-13.59-13.28-10.47,0-24.61,6.33L681.45,67a71,71,0,0,1,33.44-7.89q17.58,0,27,7.66T751.21,90v58.2H734.57Zm-7-40.47-9.22.31q-10.39.31-15.47,3.75t-5.08,10.47q0,10.08,11.56,10.08,8.28,0,13.24-4.77t5-12.66v-7.19Z" transform="translate(-142.82 -25.28)"/><path class="cls-1" d="M811.21,149.77q-40.78,0-40.78-44.77,0-22.27,11.09-34t31.8-11.76a60.63,60.63,0,0,1,27.19,5.94l-7,18.44q-5.62-2.26-10.47-3.71a33.76,33.76,0,0,0-9.69-1.45q-18.59,0-18.59,26.41,0,25.63,18.59,25.63a42.38,42.38,0,0,0,12.73-1.84,45.93,45.93,0,0,0,11.72-5.74v20.39a38.4,38.4,0,0,1-11.68,5.08A65.7,65.7,0,0,1,811.21,149.77Z" transform="translate(-142.82 -25.28)"/><path class="cls-1" d="M897.54,149.77q-21.09,0-33-11.64t-11.87-33q0-22,11-33.95t30.35-12q18.52,0,28.83,10.55t10.31,29.14v11.56H876.84q0.39,10.16,6,15.86t15.78,5.7a65.52,65.52,0,0,0,14.92-1.64,74.65,74.65,0,0,0,14.69-5.23V143.6a56,56,0,0,1-13.36,4.65A84.24,84.24,0,0,1,897.54,149.77Zm-3.36-73.59q-7.58,0-11.87,4.8t-4.92,13.63h33.44q-0.16-8.83-4.61-13.63T894.18,76.17Z" transform="translate(-142.82 -25.28)"/></svg>